<?xml version="1.0" encoding="UTF-8" standalone="no" ?>
<!DOCTYPE svg PUBLIC "-//W3C//DTD SVG 1.1//EN" "http://www.w3.org/Graphics/SVG/1.1/DTD/svg11.dtd">
<svg xmlns="http://www.w3.org/2000/svg" xmlns:xlink="http://www.w3.org/1999/xlink" version="1.1" width="32" height="32" viewBox="0 0 32 32" xml:space="preserve">
<desc>Created with Fabric.js 5.3.0</desc>
<defs>
</defs>
<g transform="matrix(0.3349819309 0 0 0.3349819309 23.9989838996 16)" id="yxFpzBYcL76XvGfLH-0Ca"  >
<path style="stroke: none; stroke-width: 1; stroke-dasharray: none; stroke-linecap: butt; stroke-dashoffset: 0; stroke-linejoin: miter; stroke-miterlimit: 4; fill: rgb(0,0,0); fill-rule: nonzero; opacity: 1;"  transform=" translate(-82.4, -50)" d="M 88.2 50 L 96.3 41.9 C 97.89999999999999 40.3 97.89999999999999 37.699999999999996 96.3 36.1 C 94.7 34.5 92.1 34.5 90.5 36.1 L 82.4 44.2 L 74.30000000000001 36.1 C 72.70000000000002 34.5 70.10000000000001 34.5 68.50000000000001 36.1 C 66.90000000000002 37.7 66.90000000000002 40.300000000000004 68.50000000000001 41.9 L 76.60000000000001 50 L 68.50000000000001 58.1 C 66.90000000000002 59.7 66.90000000000002 62.300000000000004 68.50000000000001 63.9 C 69.30000000000001 64.7 70.40000000000002 65.1 71.40000000000002 65.1 C 72.40000000000002 65.1 73.50000000000001 64.69999999999999 74.30000000000003 63.89999999999999 L 82.40000000000002 55.79999999999999 L 90.50000000000001 63.89999999999999 C 91.30000000000001 64.69999999999999 92.40000000000002 65.1 93.40000000000002 65.1 C 94.50000000000001 65.1 95.50000000000001 64.69999999999999 96.30000000000003 63.89999999999999 C 97.90000000000002 62.29999999999999 97.90000000000002 59.69999999999999 96.30000000000003 58.099999999999994 L 88.2 50 z" stroke-linecap="round" />
</g>
<g transform="matrix(0.2408066029 0 0 0.2408066029 11 16)" id="ViFYrERC1pq3ykej7ggd0"  >
<path style="stroke: none; stroke-width: 1; stroke-dasharray: none; stroke-linecap: butt; stroke-dashoffset: 0; stroke-linejoin: miter; stroke-miterlimit: 4; fill: rgb(0,0,0); fill-rule: nonzero; opacity: 1;"  transform=" translate(-29.84, -50.0002442178)" d="M 54.34 10.3 C 53.163913906644964 9.70468971321641 51.753100070998286 9.820647014776414 50.690000000000005 10.600000000000001 L 24.56 29.8 L 12.92 29.8 C 7.675579612501995 29.80551174433053 3.4255117443305245 34.055579612502 3.42 39.300000000000004 L 3.42 60.7 C 3.4255117443305267 65.94442038749801 7.675579612501994 70.19448825566948 12.920000000000002 70.2 L 24.56 70.2 L 50.69 89.4 C 51.75324033490133 90.17984161362745 53.164530480349086 90.29594661512763 54.34092575818191 89.70035690534513 C 55.51732103601472 89.10476719556263 56.2591522167203 87.898572043299 56.26 86.58000000000001 L 56.26 13.42 C 56.258841061703215 12.101351696636074 55.51664016557311 10.895275240424649 54.34 10.3 Z" stroke-linecap="round" />
</g>
</svg>