<?xml version="1.0" encoding="UTF-8" standalone="no" ?>
<!DOCTYPE svg PUBLIC "-//W3C//DTD SVG 1.1//EN" "http://www.w3.org/Graphics/SVG/1.1/DTD/svg11.dtd">
<svg xmlns="http://www.w3.org/2000/svg" xmlns:xlink="http://www.w3.org/1999/xlink" version="1.1" width="32" height="32" viewBox="0 0 32 32" xml:space="preserve">
<desc>Created with Fabric.js 5.3.0</desc>
<defs>
</defs>
<g transform="matrix(0.2408066029 0 0 0.2408066029 11 16)" id="t4GNYLLRPVianoEx58ehh"  >
<path style="stroke: none; stroke-width: 1; stroke-dasharray: none; stroke-linecap: butt; stroke-dashoffset: 0; stroke-linejoin: miter; stroke-miterlimit: 4; fill: rgb(0,0,0); fill-rule: nonzero; opacity: 1;"  transform=" translate(-29.84, -50.0002442178)" d="M 54.34 10.3 C 53.163913906644964 9.70468971321641 51.753100070998286 9.820647014776414 50.690000000000005 10.600000000000001 L 24.56 29.8 L 12.92 29.8 C 7.675579612501995 29.80551174433053 3.4255117443305245 34.055579612502 3.42 39.300000000000004 L 3.42 60.7 C 3.4255117443305267 65.94442038749801 7.675579612501994 70.19448825566948 12.920000000000002 70.2 L 24.56 70.2 L 50.69 89.4 C 51.75324033490133 90.17984161362745 53.164530480349086 90.29594661512763 54.34092575818191 89.70035690534513 C 55.51732103601472 89.10476719556263 56.2591522167203 87.898572043299 56.26 86.58000000000001 L 56.26 13.42 C 56.258841061703215 12.101351696636074 55.51664016557311 10.895275240424649 54.34 10.3 Z" stroke-linecap="round" />
</g>
<g transform="matrix(0.2752913632 0 0 0.2752913632 23.3992928801 16.0186974162)" id="3BWpKF63cptpPM0acyJpV"  >
<path style="stroke: none; stroke-width: 1; stroke-dasharray: none; stroke-linecap: butt; stroke-dashoffset: 0; stroke-linejoin: miter; stroke-miterlimit: 4; fill: rgb(0,0,0); fill-rule: nonzero; opacity: 1;"  transform=" translate(-89.4131426805, -60.0000129123)" d="M 78 25.17 C 77.01955627482434 24.92669181838782 75.98169172999741 25.148733417189487 75.18662158442179 25.771896504262276 C 74.39155143884616 26.395059591335066 73.92797960595159 27.349819477774577 73.93 28.36 L 73.93 28.360000000000003 C 73.90835941921235 29.813775150352715 74.86950922545856 31.099415703152133 76.27000000000001 31.490000000000002 C 89.30065862712358 34.809089672984555 98.42065429945649 46.54327472899284 98.42065429945649 59.989999999999995 C 98.42065429945649 73.43672527100716 89.30065862712358 85.17091032701545 76.27000000000001 88.49000000000001 C 74.86950922545856 88.88058429684789 73.90835941921235 90.16622484964729 73.93 91.62 C 73.92178357398399 92.6336838151344 74.38274086002453 93.59420872032443 75.1786902165081 94.22197221769846 C 75.97463957299168 94.84973571507248 77.016133518956 95.07419077419094 78 94.83 C 93.8439630303771 90.68893642790867 104.8966434761677 76.37618917868434 104.8966434761677 60 C 104.8966434761677 43.623810821315665 93.8439630303771 29.311063572091328 78 25.17 Z" stroke-linecap="round" />
</g>
<g transform="matrix(0.2752913632 0 0 0.2752913632 21.607967753 16.0131880343)" id="xgzUnve9ITFza5SCRuAzy"  >
<path style="stroke: none; stroke-width: 1; stroke-dasharray: none; stroke-linecap: butt; stroke-dashoffset: 0; stroke-linejoin: miter; stroke-miterlimit: 4; fill: rgb(0,0,0); fill-rule: nonzero; opacity: 1;"  transform=" translate(-82.9061273265, -59.98)" d="M 75.74 74.83 C 74.608355367599 75.36870741431864 73.89373887228356 76.51677981662868 73.91 77.77 C 73.91446508431477 78.89311685554348 74.48814287884231 79.93734785651591 75.43367900241073 80.54346075623926 C 76.37921512597914 81.1495736559626 77.56759618646048 81.23486756204713 78.59 80.77 C 86.70450439302232 77.03183495119877 91.90252642916724 68.9141513014084 91.90252642916724 59.97999999999999 C 91.90252642916724 51.04584869859159 86.7045043930223 42.92816504880121 78.58999999999999 39.18999999999999 C 77.56759618646048 38.72513243795286 76.37921512597914 38.810426344037396 75.43367900241073 39.41653924376074 C 74.48814287884231 40.02265214348409 73.91446508431477 41.06688314445651 73.91 42.19 C 73.89373887228356 43.44322018337132 74.608355367599 44.59129258568136 75.74 45.129999999999995 C 81.59226690459178 47.74193976164048 85.3611859068259 53.551313922416 85.3611859068259 59.959999999999994 C 85.3611859068259 66.36868607758399 81.59226690459178 72.1780602383595 75.74 74.78999999999999 Z" stroke-linecap="round" />
</g>
</svg>