<svg
  xmlns="http://www.w3.org/2000/svg"
  xml:space="preserve"
  viewBox="0 0 32 32"
  id="close"
  version="1.1"
  fill="currentColor"
  enable-background="new 0 0 16 16">

 <g>
  <title>Layer 1</title>
   <g id="svg_35">
   <g id="svg_1" display="none">
    <g id="svg_2" display="inline">
     <g id="svg_3">
      <g id="svg_4">
       <line id="svg_5" y2="79.83353" x2="79.87851" y1="63.83353" x1="63.87851" stroke-miterlimit="10" stroke-width="0.1"
         stroke="#00FFFF" fill="#000000" />
        <line id="svg_6" y2="79.83353" x2="63.87851" y1="63.83353" x1="79.87851" stroke-miterlimit="10" stroke-width="0.1"
          stroke="#00FFFF" fill="#000000" />
      </g>
     </g>
      <g id="svg_7" opacity="0.2">
      <g id="svg_8">
       <polygon id="svg_9"
         points="79.87850952148438,70.83352756500244 72.87850952148438,70.83352756500244 72.87850952148438,63.83352756500244 70.87850952148438,63.83352756500244 70.87850952148438,70.83352756500244 63.878501892089844,70.83352756500244 63.878501892089844,72.83352756500244 70.87850952148438,72.83352756500244 70.87850952148438,79.83352756500244 72.87850952148438,79.83352756500244 72.87850952148438,72.83352756500244 79.87850952148438,72.83352756500244 "
         fill="#000000" />
      </g>
     </g>
      <g id="svg_10">
      <g id="svg_11">
       <g id="svg_12">
        <path id="svg_13" d="m78.77851,64.93353l0,13.8l-13.8,0l0,-13.8l13.8,0m0.1,-0.1l-14,0l0,14l14,0l0,-14l0,0z"
          fill="#000000" />
       </g>
      </g>
     </g>
      <g id="svg_14">
      <g id="svg_15">
       <g id="svg_16">
        <g id="svg_17">
         <g id="svg_18">
          <path id="svg_19"
            d="m71.87851,63.93353c4.4,0 7.9,3.5 7.9,7.9s-3.5,7.9 -7.9,7.9s-7.9,-3.5 -7.9,-7.9s3.5,-7.9 7.9,-7.9m0,-0.1c-4.4,0 -8,3.6 -8,8c0,4.4 3.6,8 8,8s8,-3.6 8,-8c0,-4.4 -3.6,-8 -8,-8l0,0z"
            fill="#000000" />
         </g>
        </g>
       </g>
      </g>
     </g>
      <g id="svg_20">
      <g id="svg_21">
       <g id="svg_22">
        <path id="svg_23" d="m76.77851,66.93353l0,9.8l-9.8,0l0,-9.8l9.8,0m0.1,-0.1l-10,0l0,10l10,0l0,-10l0,0z" fill="#000000" />
       </g>
      </g>
     </g>
      <g id="svg_24">
      <g id="svg_25">
       <g id="svg_26">
        <path id="svg_27" d="m74.77851,68.93353l0,5.8l-5.8,0l0,-5.8l5.8,0m0.1,-0.1l-6,0l0,6l6,0l0,-6l0,0z" fill="#000000" />
       </g>
      </g>
     </g>
    </g>
   </g>
     <g id="svg_28" display="none">
    <line id="svg_29" y2="77.83353" x2="65.87851" y1="65.83353" x1="77.87851" stroke-miterlimit="10" stroke-linejoin="round"
      stroke-linecap="round" stroke-width="2" stroke="#000000" fill="none" display="inline" />
       <line id="svg_30" y2="77.83353" x2="77.87851" y1="65.83353" x1="65.87851" stroke-miterlimit="10" stroke-linejoin="round"
         stroke-linecap="round" stroke-width="2" stroke="#000000" fill="none" display="inline" />
   </g>
     <g id="svg_31">
    <path id="svg_32"
      d="m26.27811,5.7219c-0.61362,-0.61362 -1.53405,-0.61362 -2.14766,0l-8.13044,8.13044l-8.13044,-8.13044c-0.61362,-0.61362 -1.53405,-0.61362 -2.14766,0s-0.61362,1.53405 0,2.14766l8.13044,8.13044l-8.13044,8.13044c-0.61362,0.61362 -0.61362,1.53405 0,2.14766c0.30681,0.30681 0.61362,0.46021 1.07383,0.46021s0.76702,-0.1534 1.07383,-0.46021l8.13044,-8.13044l8.13044,8.13044c0.30681,0.30681 0.76702,0.46021 1.07383,0.46021s0.76702,-0.1534 1.07383,-0.46021c0.61362,-0.61362 0.61362,-1.53405 0,-2.14766l-8.13044,-8.13044l8.13044,-8.13044c0.61362,-0.61362 0.61362,-1.53405 0,-2.14766z"
     />
   </g>
  </g>
 </g>
</svg>